<?xml version="1.0" encoding="UTF-8"?>
<!-- Generated by Pixelmator Pro 3.0.1 -->
<svg width="32" height="32" viewBox="0 0 32 32" xmlns="http://www.w3.org/2000/svg" xmlns:xlink="http://www.w3.org/1999/xlink">
    <path id="Trazado" fill="#ffffff" stroke="none" d="M 16 0.396 C 7.161 0.396 0 7.563 0 16.396 C 0 23.469 4.584 29.464001 10.937 31.579 C 11.74 31.73 12.03 31.235001 12.03 30.806999 C 12.03 30.427 12.021 29.422001 12.015 28.087999 C 7.562 29.052 6.624 25.937 6.624 25.937 C 5.895 24.093 4.843 23.598 4.843 23.598 C 3.395 22.608999 4.958 22.629999 4.958 22.629999 C 6.562 22.739 7.406 24.275 7.406 24.275 C 8.833 26.723 11.15 26.014999 12.067 25.603001 C 12.207 24.572001 12.624 23.863001 13.078 23.468 C 9.526 23.066999 5.791 21.691999 5.791 15.561001 C 5.791 13.810001 6.411 12.383999 7.436 11.264 C 7.259 10.862999 6.717 9.233 7.577 7.028999 C 7.577 7.028999 8.916 6.602001 11.977 8.67 C 13.258 8.314999 14.618 8.138 15.977 8.129 C 17.337 8.138 18.695999 8.316 19.976999 8.67 C 23.02 6.602001 24.358 7.028999 24.358 7.028999 C 25.216999 9.233 24.674999 10.862 24.518999 11.264 C 25.534 12.383999 26.153999 13.811001 26.153999 15.561001 C 26.153999 21.705999 22.414 23.061001 18.858 23.452 C 19.414 23.931 19.934999 24.916 19.934999 26.410999 C 19.934999 28.551001 19.915001 30.275 19.915001 30.796 C 19.915001 31.212 20.195 31.712 21.018999 31.551001 C 27.419001 29.458 31.997999 23.458 31.997999 16.395 C 31.997999 7.562 24.837 0.395 15.998 0.395 Z"/>
</svg>
