<?xml version="1.0" encoding="UTF-8"?>
<!-- Generated by Pixelmator Pro 3.0.1 -->
<svg width="24" height="24" viewBox="0 0 24 24" xmlns="http://www.w3.org/2000/svg" xmlns:xlink="http://www.w3.org/1999/xlink">
    <path id="Trazado" fill="none" stroke="none" d="M 0 0 L 24 0 L 24 24 L 0 24 Z"/>
    <path id="path1" fill="#ffffff" stroke="none" d="M 6.94 5 C 6.939448 6.104568 6.04357 6.999552 4.939 6.999001 C 3.83443 6.998447 2.939448 6.10257 2.94 4.998001 C 2.940552 3.893431 3.836431 2.998447 4.941 2.999001 C 6.045569 2.999552 6.940552 3.895432 6.94 5 Z M 7 8.48 L 3 8.48 L 3 21 L 7 21 Z M 13.32 8.48 L 9.34 8.48 L 9.34 21 L 13.28 21 L 13.28 14.43 C 13.28 10.77 18.049999 10.43 18.049999 14.43 L 18.049999 21 L 22 21 L 22 13.07 C 22 6.9 14.94 7.130001 13.28 10.16 Z"/>
</svg>
