<?xml version="1.0" encoding="UTF-8"?>
<!-- Generated by Pixelmator Pro 3.0.1 -->
<svg width="24" height="24" viewBox="0 0 24 24" xmlns="http://www.w3.org/2000/svg" xmlns:xlink="http://www.w3.org/1999/xlink">
    <path id="Trazado" fill="#ffffff" stroke="none" opacity="0" d="M 0 0 L 24 0 L 24 24 L 0 24"/>
    <path id="path1" fill="#000000" stroke="none" d="M 8.08 20 C 11.067407 20.099957 13.968271 18.98757 16.122898 16.915813 C 18.277523 14.844057 19.502771 11.989028 19.52 9 C 20.197649 8.161412 20.70084 7.195829 21 6.16 C 21.045616 5.992828 20.988865 5.814447 20.855038 5.704365 C 20.721212 5.594284 20.535236 5.572998 20.379999 5.65 C 19.653049 5.999929 18.783876 5.847019 18.219999 5.27 C 17.510759 4.493332 16.517242 4.036963 15.465952 4.004934 C 14.414662 3.972906 13.395206 4.367949 12.64 5.1 C 11.598965 6.108194 11.162532 7.588272 11.49 9 C 8.14 9.2 5.84 7.610001 4 5.43 C 3.88705 5.302088 3.70915 5.253071 3.546625 5.305079 C 3.3841 5.357086 3.267708 5.500278 3.25 5.67 C 2.532116 9.652163 4.366866 13.660691 7.85 15.72 C 6.709637 17.027826 5.108209 17.844662 3.38 18 C 3.19018 18.031479 3.041376 18.180162 3.009744 18.369957 C 2.978112 18.559752 3.07065 18.748659 3.24 18.84 C 4.74352 19.591368 6.39923 19.98819 8.08 20"/>
</svg>
